<svg width="24" height="24" viewBox="0 0 24 24" fill="none" xmlns="http://www.w3.org/2000/svg">
<path d="M9 10C9 8.89543 9.89543 8 11 8H21C22.1046 8 23 8.89543 23 10V16C23 17.1046 22.1046 18 21 18V18V20L19 18H11C9.89543 18 9 17.1046 9 16V10Z" stroke="#BF3029" stroke-width="2"/>
<path d="M15 7V6C15 4.89543 14.1046 4 13 4H3C1.89543 4 1 4.89543 1 6V12C1 13.1046 1.89543 14 3 14V14V16L5 14H9" stroke="#BF3029" stroke-width="2"/>
<rect x="3" y="13" width="2" height="1" fill="#BF3029"/>
<rect x="19" y="17" width="2" height="1" fill="#BF3029"/>
</svg>
