<svg width="24" height="24" viewBox="0 0 24 24" fill="none" xmlns="http://www.w3.org/2000/svg">
<path d="M11 10C11 8.89543 11.8954 8 13 8H17.1716C17.702 8 18.2107 8.21071 18.5858 8.58579L20.4142 10.4142C20.7893 10.7893 21 11.298 21 11.8284V20C21 21.1046 20.1046 22 19 22H13C11.8954 22 11 21.1046 11 20V10Z" stroke="#333333" stroke-width="2"/>
<path d="M13 8V6.82843C13 6.29799 12.7893 5.78929 12.4142 5.41421L10.5858 3.58579C10.2107 3.21071 9.70201 3 9.17157 3H5C3.89543 3 3 3.89543 3 5V15C3 16.1046 3.89543 17 5 17H10" stroke="#333333" stroke-width="2"/>
</svg>
